<svg width="220" height="258" xmlns="http://www.w3.org/2000/svg" viewBox="0 0 220 258"><rect x="0" y="224" width="220" height="34" fill="#252154" rx="4"/><?xml version="1.0"?>
<rect x="0" y="0" width="220" height="220" fill="#2f326f" fill-opacity="1"/><path fill="#f7f7f7" fill-opacity="1" d="M23,23L65,23L65,29L23,29ZM77,23L83,23L83,29L77,29ZM95,23L119,23L119,29L95,29ZM131,23L149,23L149,29L131,29ZM155,23L197,23L197,29L155,29ZM23,29L29,29L29,35L23,35ZM59,29L65,29L65,35L59,35ZM77,29L83,29L83,35L77,35ZM89,29L95,29L95,35L89,35ZM101,29L131,29L131,35L101,35ZM137,29L143,29L143,35L137,35ZM155,29L161,29L161,35L155,35ZM191,29L197,29L197,35L191,35ZM23,35L29,35L29,41L23,41ZM35,35L53,35L53,41L35,41ZM59,35L65,35L65,41L59,41ZM71,35L77,35L77,41L71,41ZM89,35L95,35L95,41L89,41ZM101,35L107,35L107,41L101,41ZM113,35L119,35L119,41L113,41ZM131,35L143,35L143,41L131,41ZM155,35L161,35L161,41L155,41ZM167,35L185,35L185,41L167,41ZM191,35L197,35L197,41L191,41ZM23,41L29,41L29,47L23,47ZM35,41L53,41L53,47L35,47ZM59,41L65,41L65,47L59,47ZM71,41L83,41L83,47L71,47ZM107,41L119,41L119,47L107,47ZM125,41L137,41L137,47L125,47ZM143,41L149,41L149,47L143,47ZM155,41L161,41L161,47L155,47ZM167,41L185,41L185,47L167,47ZM191,41L197,41L197,47L191,47ZM23,47L29,47L29,53L23,53ZM35,47L53,47L53,53L35,53ZM59,47L65,47L65,53L59,53ZM71,47L89,47L89,53L71,53ZM113,47L125,47L125,53L113,53ZM143,47L149,47L149,53L143,53ZM155,47L161,47L161,53L155,53ZM167,47L185,47L185,53L167,53ZM191,47L197,47L197,53L191,53ZM23,53L29,53L29,59L23,59ZM59,53L65,53L65,59L59,59ZM71,53L83,53L83,59L71,59ZM89,53L101,53L101,59L89,59ZM125,53L131,53L131,59L125,59ZM155,53L161,53L161,59L155,59ZM191,53L197,53L197,59L191,59ZM23,59L65,59L65,65L23,65ZM71,59L77,59L77,65L71,65ZM83,59L89,59L89,65L83,65ZM95,59L101,59L101,65L95,65ZM107,59L113,59L113,65L107,65ZM119,59L125,59L125,65L119,65ZM131,59L137,59L137,65L131,65ZM143,59L149,59L149,65L143,65ZM155,59L197,59L197,65L155,65ZM71,65L77,65L77,71L71,71ZM89,65L101,65L101,71L89,71ZM107,65L113,65L113,71L107,71ZM119,65L149,65L149,71L119,71ZM23,71L29,71L29,77L23,77ZM35,71L65,71L65,77L35,77ZM77,71L101,71L101,77L77,77ZM125,71L131,71L131,77L125,77ZM155,71L185,71L185,77L155,77ZM23,77L29,77L29,83L23,83ZM47,77L59,77L59,83L47,83ZM71,77L83,77L83,83L71,83ZM89,77L119,77L119,83L89,83ZM143,77L167,77L167,83L143,83ZM173,77L179,77L179,83L173,83ZM185,77L191,77L191,83L185,83ZM23,83L29,83L29,89L23,89ZM35,83L47,83L47,89L35,89ZM53,83L65,83L65,89L53,89ZM71,83L77,83L77,89L71,89ZM89,83L119,83L119,89L89,89ZM125,83L131,83L131,89L125,89ZM137,83L143,83L143,89L137,89ZM173,83L185,83L185,89L173,89ZM29,89L59,89L59,95L29,95ZM71,89L83,89L83,95L71,95ZM95,89L107,89L107,95L95,95ZM113,89L119,89L119,95L113,95ZM125,89L149,89L149,95L125,95ZM155,89L179,89L179,95L155,95ZM191,89L197,89L197,95L191,95ZM29,95L35,95L35,101L29,101ZM41,95L53,95L53,101L41,101ZM59,95L65,95L65,101L59,101ZM71,95L77,95L77,101L71,101ZM83,95L89,95L89,101L83,101ZM107,95L125,95L125,101L107,101ZM161,95L173,95L173,101L161,101ZM23,101L29,101L29,107L23,107ZM47,101L53,101L53,107L47,107ZM71,101L83,101L83,107L71,107ZM95,101L101,101L101,107L95,107ZM119,101L125,101L125,107L119,107ZM161,101L179,101L179,107L161,107ZM185,101L191,101L191,107L185,107ZM23,107L29,107L29,113L23,113ZM41,107L47,107L47,113L41,113ZM53,107L65,107L65,113L53,113ZM77,107L89,107L89,113L77,113ZM113,107L137,107L137,113L113,113ZM143,107L155,107L155,113L143,113ZM173,107L197,107L197,113L173,113ZM23,113L29,113L29,119L23,119ZM35,113L41,113L41,119L35,119ZM53,113L59,113L59,119L53,119ZM71,113L77,113L77,119L71,119ZM89,113L101,113L101,119L89,119ZM107,113L113,113L113,119L107,119ZM119,113L173,113L173,119L119,119ZM185,113L197,113L197,119L185,119ZM23,119L41,119L41,125L23,125ZM53,119L65,119L65,125L53,125ZM89,119L95,119L95,125L89,125ZM113,119L131,119L131,125L113,125ZM143,119L149,119L149,125L143,125ZM155,119L173,119L173,125L155,125ZM23,125L35,125L35,131L23,131ZM41,125L59,125L59,131L41,131ZM65,125L77,125L77,131L65,131ZM89,125L95,125L95,131L89,131ZM101,125L125,125L125,131L101,131ZM143,125L167,125L167,131L143,131ZM173,125L179,125L179,131L173,131ZM185,125L191,125L191,131L185,131ZM23,131L29,131L29,137L23,137ZM47,131L53,131L53,137L47,137ZM59,131L77,131L77,137L59,137ZM101,131L119,131L119,137L101,137ZM125,131L131,131L131,137L125,137ZM137,131L143,131L143,137L137,137ZM173,131L191,131L191,137L173,137ZM23,137L29,137L29,143L23,143ZM41,137L47,137L47,143L41,143ZM83,137L95,137L95,143L83,143ZM101,137L107,137L107,143L101,143ZM119,137L125,137L125,143L119,143ZM137,137L173,137L173,143L137,143ZM185,137L197,137L197,143L185,143ZM23,143L29,143L29,149L23,149ZM35,143L41,143L41,149L35,149ZM53,143L77,143L77,149L53,149ZM95,143L101,143L101,149L95,149ZM107,143L125,143L125,149L107,149ZM131,143L137,143L137,149L131,149ZM143,143L191,143L191,149L143,149ZM71,149L101,149L101,155L71,155ZM113,149L119,149L119,155L113,155ZM131,149L149,149L149,155L131,155ZM167,149L173,149L173,155L167,155ZM185,149L191,149L191,155L185,155ZM23,155L65,155L65,161L23,161ZM83,155L89,155L89,161L83,161ZM125,155L131,155L131,161L125,161ZM143,155L149,155L149,161L143,161ZM155,155L161,155L161,161L155,161ZM167,155L185,155L185,161L167,161ZM23,161L29,161L29,167L23,167ZM59,161L65,161L65,167L59,167ZM71,161L77,161L77,167L71,167ZM83,161L101,161L101,167L83,167ZM107,161L113,161L113,167L107,167ZM119,161L125,161L125,167L119,167ZM143,161L149,161L149,167L143,167ZM167,161L173,161L173,167L167,167ZM179,161L197,161L197,167L179,167ZM23,167L29,167L29,173L23,173ZM35,167L53,167L53,173L35,173ZM59,167L65,167L65,173L59,173ZM71,167L77,167L77,173L71,173ZM83,167L95,167L95,173L83,173ZM113,167L119,167L119,173L113,173ZM125,167L137,167L137,173L125,173ZM143,167L173,167L173,173L143,173ZM179,167L197,167L197,173L179,173ZM23,173L29,173L29,179L23,179ZM35,173L53,173L53,179L35,179ZM59,173L65,173L65,179L59,179ZM71,173L113,173L113,179L71,179ZM119,173L125,173L125,179L119,179ZM131,173L137,173L137,179L131,179ZM143,173L149,173L149,179L143,179ZM161,173L167,173L167,179L161,179ZM23,179L29,179L29,185L23,185ZM35,179L53,179L53,185L35,185ZM59,179L65,179L65,185L59,185ZM71,179L101,179L101,185L71,185ZM113,179L131,179L131,185L113,185ZM137,179L143,179L143,185L137,185ZM161,179L167,179L167,185L161,185ZM179,179L191,179L191,185L179,185ZM23,185L29,185L29,191L23,191ZM59,185L65,185L65,191L59,191ZM77,185L83,185L83,191L77,191ZM107,185L113,185L113,191L107,191ZM119,185L125,185L125,191L119,191ZM131,185L137,185L137,191L131,191ZM173,185L185,185L185,191L173,191ZM191,185L197,185L197,191L191,191ZM23,191L65,191L65,197L23,197ZM71,191L77,191L77,197L71,197ZM101,191L107,191L107,197L101,197ZM113,191L125,191L125,197L113,197ZM143,191L149,191L149,197L143,197ZM155,191L161,191L161,197L155,197ZM167,191L185,191L185,197L167,197Z"/><rect x="0" y="0" width="220" height="220" rx="20" ry="20" fill="none" stroke="#051357" stroke-width="4"/>
<text x="110" y="246" text-anchor="middle" fill="#ffffff" font-family="Arial, sans-serif" font-size="14" font-weight="600">SCAN ME</text></svg>